# Blender v2.79 (sub 0) OBJ File: ''
# www.blender.org
mtllib axe.mtl
o Cylinder.001
v -0.222931 1.989772 -0.195298
v 0.191395 0.883432 -0.195298
v -0.240618 1.983148 -0.187295
v 0.173708 0.876808 -0.187295
v -0.247945 1.980405 -0.167974
v 0.166382 0.874064 -0.167974
v -0.240618 1.983148 -0.148653
v 0.173708 0.876808 -0.148653
v -0.222931 1.989772 -0.140650
v 0.191395 0.883432 -0.140650
v -0.205244 1.996396 -0.148653
v 0.209083 0.890056 -0.148653
v -0.197917 1.999140 -0.167974
v 0.216409 0.892799 -0.167974
v -0.205244 1.996396 -0.187295
v 0.209083 0.890056 -0.187295
v -0.242832 2.042913 -0.167974
v -0.222174 1.987751 -0.212069
v -0.251702 1.976693 -0.199154
v -0.263933 1.972113 -0.167974
v -0.251702 1.976693 -0.136795
v -0.222174 1.987751 -0.123880
v -0.192647 1.998810 -0.136795
v -0.180416 2.003390 -0.167974
v -0.192647 1.998810 -0.199154
v 0.191472 0.883933 -0.202882
v 0.206162 0.844709 -0.202882
v 0.167901 0.875106 -0.192658
v 0.182590 0.835881 -0.192658
v 0.158137 0.871449 -0.167974
v 0.172826 0.832224 -0.167974
v 0.167901 0.875106 -0.143291
v 0.182590 0.835881 -0.143291
v 0.191472 0.883933 -0.133067
v 0.206162 0.844709 -0.133067
v 0.215044 0.892761 -0.143291
v 0.229734 0.853536 -0.143291
v 0.224808 0.896417 -0.167974
v 0.239498 0.857193 -0.167974
v 0.215044 0.892761 -0.192658
v 0.229734 0.853536 -0.192658
v 0.394904 0.662654 -0.212089
v 0.092733 0.832505 -0.123860
v 0.287235 0.636915 -0.212089
v 0.207781 0.849076 -0.212089
v 0.287235 0.636915 -0.123860
v 0.207781 0.849076 -0.123860
v 0.207781 0.849076 -0.167974
v 0.287235 0.636915 -0.167974
v 0.092733 0.832505 -0.212089
v 0.185250 0.585464 -0.212089
v 0.394904 0.662654 -0.167974
v 0.394904 0.662654 -0.123860
v 0.092733 0.832505 -0.167974
v 0.298057 0.910725 -0.212089
v 0.185250 0.585464 -0.123860
v 0.298057 0.910725 -0.123860
v 0.185250 0.585464 -0.167974
v 0.298057 0.910725 -0.167974
v -0.045169 0.886382 -0.167974
v 0.114921 0.458906 -0.167974
v 0.527170 0.613295 -0.167386
v 0.367528 1.034309 -0.167386
v 0.139439 0.702523 -0.123860
v 0.355577 0.783467 -0.123860
v 0.247508 0.742995 -0.212089
v 0.247508 0.742995 -0.123860
v 0.355577 0.783467 -0.212089
v 0.139439 0.702523 -0.212089
v 0.010457 0.657533 -0.167974
v 0.471914 0.838083 -0.166798
v 0.374584 0.726129 -0.123860
v 0.513649 0.707772 -0.167386
v 0.159303 0.649483 -0.123860
v 0.267372 0.689955 -0.212089
v 0.267372 0.689955 -0.123860
v 0.159303 0.649483 -0.212089
v 0.374584 0.726129 -0.212089
v 0.060336 0.546070 -0.167974
v 0.116739 0.765770 -0.212089
v 0.328552 0.845094 -0.212089
v 0.227644 0.796035 -0.212089
v 0.227644 0.796035 -0.123860
v 0.116739 0.765770 -0.123860
v -0.025143 0.770367 -0.167974
v 0.430120 0.930811 -0.167386
v 0.328552 0.845094 -0.123860
v 0.232336 0.616355 -0.123860
v 0.150910 0.839046 -0.212089
v 0.232336 0.616355 -0.212089
v 0.150910 0.839046 -0.123860
v 0.232336 0.616355 -0.167974
v 0.150910 0.839046 -0.167974
v 0.193474 0.722759 -0.123860
v 0.193474 0.722759 -0.212089
v 0.213337 0.669719 -0.123860
v 0.213337 0.669719 -0.212089
v 0.172192 0.780903 -0.212089
v 0.172192 0.780903 -0.123860
v 0.253348 0.881387 -0.123860
v 0.340414 0.652853 -0.212089
v 0.253348 0.881387 -0.212089
v 0.340414 0.652853 -0.123860
v 0.253348 0.881387 -0.167974
v 0.340414 0.652853 -0.167974
v 0.301542 0.763231 -0.123860
v 0.301542 0.763231 -0.212089
v 0.320978 0.708042 -0.123860
v 0.320978 0.708042 -0.212089
v 0.278098 0.820565 -0.212089
v 0.278098 0.820565 -0.123860
v 0.217712 0.822556 -0.212089
v 0.217712 0.822556 -0.123860
v 0.105172 0.797975 -0.212089
v 0.313305 0.877910 -0.212089
v 0.105172 0.797975 -0.123860
v -0.035368 0.826307 -0.167974
v 0.401848 0.985018 -0.167386
v 0.313305 0.877910 -0.123860
v 0.161551 0.809975 -0.123860
v 0.161551 0.809975 -0.212089
v 0.265723 0.850976 -0.123860
v 0.265723 0.850976 -0.212089
v 0.277999 0.652887 -0.202882
v 0.292689 0.613663 -0.202882
v 0.254428 0.644060 -0.192658
v 0.269117 0.604835 -0.192658
v 0.244664 0.640403 -0.167974
v 0.259353 0.601179 -0.167974
v 0.254428 0.644060 -0.143291
v 0.269117 0.604835 -0.143291
v 0.277999 0.652887 -0.133067
v 0.292689 0.613663 -0.133067
v 0.301571 0.661715 -0.143291
v 0.316261 0.622490 -0.143291
v 0.311335 0.665372 -0.167974
v 0.326025 0.626147 -0.167974
v 0.301571 0.661715 -0.192658
v 0.316261 0.622490 -0.192658
v 0.296451 0.603617 -0.167974
vn -0.3654 -0.1368 -0.9207
vn -0.8680 -0.3251 -0.3753
vn -0.8680 -0.3251 0.3753
vn -0.3654 -0.1368 0.9207
vn 0.3654 0.1368 0.9207
vn 0.8680 0.3251 0.3753
vn 0.3507 -0.9365 0.0000
vn 0.8680 0.3251 -0.3753
vn 0.3654 0.1368 -0.9207
vn -0.3507 0.9365 0.0000
vn -0.4915 0.4240 -0.7607
vn -0.9090 0.2709 -0.3168
vn -0.9090 0.2709 0.3168
vn -0.4915 0.4240 0.7607
vn 0.0921 0.6425 0.7607
vn 0.5074 0.8014 0.3168
vn 0.5074 0.8014 -0.3168
vn 0.0921 0.6425 -0.7607
vn 0.0000 0.0000 -1.0000
vn -0.3524 -0.1320 -0.9265
vn -0.1117 0.9937 0.0000
vn 0.1770 -0.9842 0.0000
vn -0.8627 -0.3231 -0.3891
vn -0.5784 0.8157 0.0000
vn -0.8627 -0.3231 0.3891
vn 0.0000 0.0000 1.0000
vn -0.3524 -0.1320 0.9265
vn 0.3524 0.1320 0.9265
vn 0.8627 0.3231 0.3891
vn 0.8627 0.3231 -0.3891
vn 0.3524 0.1320 -0.9265
vn -0.3496 -0.9369 0.0000
vn 0.8741 -0.4857 0.0000
vn 0.2837 0.1713 -0.9435
vn 0.3639 0.9314 0.0000
vn -0.8717 0.4900 0.0000
vn -0.3214 -0.0756 0.9439
vn -0.2860 -0.1524 -0.9460
vn 0.3203 0.0686 0.9448
vn 0.2903 0.1331 0.9476
vn -0.2950 -0.0977 -0.9505
vn -0.2881 -0.1221 0.9498
vn 0.3171 0.1056 -0.9425
vn 0.3280 0.0703 -0.9421
vn -0.2860 -0.1524 0.9460
vn 0.3069 0.0964 0.9469
vn -0.2881 -0.1221 -0.9498
vn -0.3053 -0.0755 -0.9492
vn 0.2877 0.1439 0.9469
vn -0.2950 -0.0977 0.9505
vn 0.3045 0.1322 -0.9433
vn 0.5485 -0.8361 0.0000
vn -0.1737 0.9848 0.0000
vn 0.2871 -0.9579 0.0000
vn -0.5486 0.8361 0.0000
vn 0.2771 0.1673 0.9462
vn -0.3214 -0.0756 -0.9439
vn -0.3053 -0.0755 0.9492
vn 0.2946 0.1473 -0.9442
vn 0.4438 -0.8473 -0.2917
vn 0.2219 -0.9304 -0.2917
vn 0.0651 -0.9905 0.1210
vn 0.6016 -0.7896 0.1210
vn 0.2219 -0.9304 0.2917
vn 0.6016 -0.7896 -0.1210
vn 0.0651 -0.9905 -0.1210
vn 0.4438 -0.8473 0.2917
usemtl Wood.001
s off
f 1//1 2//1 4//1 3//1
f 3//2 4//2 6//2 5//2
f 5//3 6//3 8//3 7//3
f 7//4 8//4 10//4 9//4
f 9//5 10//5 12//5 11//5
f 11//6 12//6 14//6 13//6
f 4//7 2//7 16//7 14//7 12//7 10//7 8//7 6//7
f 13//8 14//8 16//8 15//8
f 15//9 16//9 2//9 1//9
f 1//10 3//10 5//10 7//10 9//10 11//10 13//10 15//10
usemtl Metal.002
f 17//11 18//11 19//11
f 17//12 19//12 20//12
f 17//13 20//13 21//13
f 17//14 21//14 22//14
f 17//15 22//15 23//15
f 17//16 23//16 24//16
f 19//7 18//7 25//7 24//7 23//7 22//7 21//7 20//7
f 17//17 24//17 25//17
f 17//18 25//18 18//18
f 90//7 44//7 49//7 92//7
f 109//19 101//19 44//19 75//19
f 26//20 27//20 29//20 28//20
f 89//21 50//21 54//21 93//21
f 105//22 52//22 53//22 103//22
f 28//23 29//23 31//23 30//23
f 102//24 45//24 48//24 104//24
f 93//21 54//21 43//21 91//21
f 30//25 31//25 33//25 32//25
f 108//26 103//26 53//26 72//26
f 32//27 33//27 35//27 34//27
f 92//7 49//7 46//7 88//7
f 34//28 35//28 37//28 36//28
f 104//24 48//24 47//24 100//24
f 97//19 90//19 51//19 77//19
f 36//29 37//29 39//29 38//29
f 29//7 27//7 41//7 39//7 37//7 35//7 33//7 31//7
f 38//30 39//30 41//30 40//30
f 96//26 88//26 46//26 76//26
f 40//31 41//31 27//31 26//31
f 26//10 28//10 30//10 32//10 34//10 36//10 38//10 40//10
f 101//22 42//22 52//22 105//22
f 52//32 42//32 62//32
f 58//33 56//33 61//33
f 53//32 52//32 62//32
f 115//34 55//34 63//34 118//34
f 51//33 58//33 61//33
f 54//35 50//35 60//35
f 59//36 57//36 63//36
f 116//37 43//37 60//37 117//37
f 55//36 59//36 63//36
f 77//38 51//38 61//38 79//38
f 43//35 54//35 60//35
f 72//39 53//39 62//39 73//39
f 87//40 65//40 71//40 86//40
f 80//41 69//41 70//41 85//41
f 74//42 64//42 70//42 79//42
f 78//43 68//43 71//43 73//43
f 99//26 94//26 67//26 83//26
f 98//19 95//19 69//19 80//19
f 111//26 106//26 65//26 87//26
f 110//19 107//19 66//19 82//19
f 42//44 78//44 73//44 62//44
f 56//45 74//45 79//45 61//45
f 65//46 72//46 73//46 71//46
f 69//47 77//47 79//47 70//47
f 94//26 96//26 76//26 67//26
f 95//19 97//19 77//19 69//19
f 106//26 108//26 72//26 65//26
f 107//19 109//19 75//19 66//19
f 123//19 110//19 82//19 112//19
f 122//26 111//26 87//26 119//26
f 121//19 98//19 80//19 114//19
f 120//26 99//26 83//26 113//26
f 114//48 80//48 85//48 117//48
f 119//49 87//49 86//49 118//49
f 64//50 84//50 85//50 70//50
f 68//51 81//51 86//51 71//51
f 116//26 84//26 99//26 120//26
f 112//19 82//19 98//19 121//19
f 66//19 75//19 97//19 95//19
f 64//26 74//26 96//26 94//26
f 82//19 66//19 95//19 98//19
f 84//26 64//26 94//26 99//26
f 74//26 56//26 88//26 96//26
f 75//19 44//19 90//19 97//19
f 58//52 92//52 88//52 56//52
f 48//53 93//53 91//53 47//53
f 45//53 89//53 93//53 48//53
f 51//52 90//52 92//52 58//52
f 113//26 83//26 111//26 122//26
f 115//19 81//19 110//19 123//19
f 68//19 78//19 109//19 107//19
f 67//26 76//26 108//26 106//26
f 81//19 68//19 107//19 110//19
f 83//26 67//26 106//26 111//26
f 44//54 101//54 105//54 49//54
f 59//55 104//55 100//55 57//55
f 76//26 46//26 103//26 108//26
f 55//55 102//55 104//55 59//55
f 49//54 105//54 103//54 46//54
f 78//19 42//19 101//19 109//19
f 55//19 115//19 123//19 102//19
f 47//26 113//26 122//26 100//26
f 45//19 112//19 121//19 89//19
f 43//26 116//26 120//26 91//26
f 57//56 119//56 118//56 63//56
f 50//57 114//57 117//57 60//57
f 91//26 120//26 113//26 47//26
f 89//19 121//19 114//19 50//19
f 100//26 122//26 119//26 57//26
f 102//19 123//19 112//19 45//19
f 84//58 116//58 117//58 85//58
f 81//59 115//59 118//59 86//59
f 124//20 125//20 127//20 126//20
f 126//23 127//23 129//23 128//23
f 128//25 129//25 131//25 130//25
f 130//27 131//27 133//27 132//27
f 132//28 133//28 135//28 134//28
f 134//29 135//29 137//29 136//29
f 125//60 139//60 140//60
f 136//30 137//30 139//30 138//30
f 138//31 139//31 125//31 124//31
f 124//10 126//10 128//10 130//10 132//10 134//10 136//10 138//10
f 127//61 125//61 140//61
f 131//62 129//62 140//62
f 137//63 135//63 140//63
f 133//64 131//64 140//64
f 139//65 137//65 140//65
f 129//66 127//66 140//66
f 135//67 133//67 140//67
